# xmcd CD database file
#
# Track frame offsets:
#	150
#	32237
#	74594
#	106600
#	132629
#	151598
#	169241
#
# Disc length: 3193 seconds
#
# Revision: 1
# Processed by: cddbd v1.5.2PL0 Copyright (c) Steve Scherf et al.
# Submitted via: CDex 1.70beta2
#
DISCID=590c7707
DTITLE=Eivind Opsvik - Overseas III
DYEAR=2008
DGENRE=Jazz
TTITLE0=Neil
TTITLE1=Everseas
TTITLE2=Silver
TTITLE3=Ginger Rogers
TTITLE4=Breath Of Bark
TTITLE5=Whiff Of Wood
TTITLE6=Lull Of Lumber
EXTD=YEAR: 2008
EXTT0=
EXTT1=
EXTT2=
EXTT3=
EXTT4=
EXTT5=
EXTT6=
PLAYORDER=
